<?xml version="1.0" encoding="UTF-8" standalone="no"?>
<!DOCTYPE svg PUBLIC "-//W3C//DTD SVG 1.1//EN"
 "http://www.w3.org/Graphics/SVG/1.1/DTD/svg11.dtd">
<!-- Generated by graphviz version 2.50.0 (20211204.2007)
 -->
<!-- Title: G Pages: 1 -->
<svg width="1272pt" height="394pt"
 viewBox="0.00 0.00 1272.00 394.00" xmlns="http://www.w3.org/2000/svg" xmlns:xlink="http://www.w3.org/1999/xlink">
<g id="graph0" class="graph" transform="scale(1 1) rotate(0) translate(4 390)">
<title>G</title>
<polygon fill="white" stroke="transparent" points="-4,4 -4,-390 1268,-390 1268,4 -4,4"/>
<!-- n0out1 -->
<!-- n0out2 -->
<!-- n0out1&#45;&gt;n0out2 -->
<!-- n0out3 -->
<!-- n0out2&#45;&gt;n0out3 -->
<!-- n0out4 -->
<!-- n0out3&#45;&gt;n0out4 -->
<!-- n0out5 -->
<!-- n0out4&#45;&gt;n0out5 -->
<!-- n0out6 -->
<!-- n0out5&#45;&gt;n0out6 -->
<!-- n0out7 -->
<!-- n0out6&#45;&gt;n0out7 -->
<!-- n1 -->
<!-- Climate_mechanism -->
<g id="n1" class="node">
<title>n1</title>
<polygon fill="none" stroke="black" points="3.5,-337 3.5,-362 127.5,-362 127.5,-337 3.5,-337"/>
<text text-anchor="start" x="8.5" y="-345.8" font-family="Serif" font-size="14.00">Climate_mechanism</text>
</g>
<!-- n1&#45;&gt;n0out1 -->
<!-- Climate -->
<g id="e7" class="edge">
<title>n1:e&#45;&gt;n0out1:w</title>
<path fill="none" stroke="black" d="M128.5,-349C138.28,-349 139.48,-354.76 149,-357 215.9,-372.76 234.27,-371 303,-371 303,-371 303,-371 1096.5,-371 1168.77,-371 1188.1,-371.95 1257.89,-372"/>
<polygon fill="black" stroke="black" points="1258,-373.75 1263,-372 1258,-370.25 1258,-373.75"/>
<text text-anchor="middle" x="700" y="-374.8" font-family="Serif" font-size="14.00">Climate</text>
</g>
<!-- n3 -->
<!-- SoilMoisture_mechanism -->
<g id="n3" class="node">
<title>n3</title>
<polygon fill="none" stroke="black" points="228,-228 228,-276 380,-276 380,-228 228,-228"/>
<text text-anchor="start" x="233" y="-248.3" font-family="Serif" font-size="14.00">SoilMoisture_mechanism</text>
</g>
<!-- n1&#45;&gt;n3 -->
<!-- Climate -->
<g id="e1" class="edge">
<title>n1:e&#45;&gt;n3:w</title>
<path fill="none" stroke="black" d="M128.5,-349C148.59,-349 186.39,-308.79 201,-295 212.65,-284.01 209.91,-268.01 221.87,-264.64"/>
<polygon fill="black" stroke="black" points="222.25,-266.35 227,-264 221.82,-262.88 222.25,-266.35"/>
<text text-anchor="middle" x="175" y="-342.8" font-family="Serif" font-size="14.00">Climate</text>
</g>
<!-- n2 -->
<!-- Irrigation_mechanism -->
<g id="n2" class="node">
<title>n2</title>
<polygon fill="none" stroke="black" points="0.5,-284 0.5,-309 131.5,-309 131.5,-284 0.5,-284"/>
<text text-anchor="start" x="5.5" y="-292.8" font-family="Serif" font-size="14.00">Irrigation_mechanism</text>
</g>
<!-- n2&#45;&gt;n0out2 -->
<!-- Irrigation -->
<g id="e8" class="edge">
<title>n2:e&#45;&gt;n0out2:w</title>
<path fill="none" stroke="black" d="M131,-296C207.55,-296 226.45,-305 303,-305 303,-305 303,-305 1096.5,-305 1168.83,-305 1188.04,-311.68 1257.88,-311.99"/>
<polygon fill="black" stroke="black" points="1258,-313.74 1263,-312 1258,-310.24 1258,-313.74"/>
<text text-anchor="middle" x="700" y="-308.8" font-family="Serif" font-size="14.00">Irrigation</text>
</g>
<!-- n2&#45;&gt;n3 -->
<!-- Irrigation -->
<g id="e2" class="edge">
<title>n2:e&#45;&gt;n3:w</title>
<path fill="none" stroke="black" d="M131,-296C142.96,-296 139.37,-283.1 149,-276 178.29,-254.41 187.92,-241.27 221.82,-240.09"/>
<polygon fill="black" stroke="black" points="222.03,-241.83 227,-240 221.97,-238.33 222.03,-241.83"/>
<text text-anchor="middle" x="175" y="-279.8" font-family="Serif" font-size="14.00">Irrigation</text>
</g>
<!-- n3&#45;&gt;n0out3 -->
<!-- SoilMoisture -->
<g id="e9" class="edge">
<title>n3:e&#45;&gt;n0out3:w</title>
<path fill="none" stroke="black" d="M381,-252C470.78,-252 493.22,-252 583,-252 583,-252 583,-252 1096.5,-252 1168.77,-252 1188.1,-252 1257.89,-252"/>
<polygon fill="black" stroke="black" points="1258,-253.75 1263,-252 1258,-250.25 1258,-253.75"/>
<text text-anchor="middle" x="827.5" y="-255.8" font-family="Serif" font-size="14.00">SoilMoisture</text>
</g>
<!-- n5 -->
<!-- Vegetation_mechanism -->
<g id="n5" class="node">
<title>n5</title>
<polygon fill="none" stroke="black" points="515,-109 515,-157 653,-157 653,-109 515,-109"/>
<text text-anchor="start" x="520" y="-129.3" font-family="Serif" font-size="14.00">Vegetation_mechanism</text>
</g>
<!-- n3&#45;&gt;n5 -->
<!-- SoilMoisture -->
<g id="e3" class="edge">
<title>n3:e&#45;&gt;n5:w</title>
<path fill="none" stroke="black" d="M381,-252C398.31,-252 393.33,-233.62 407,-223 442.63,-195.31 464.38,-207.19 497,-176 506.9,-166.54 501.31,-150.44 509.66,-146.11"/>
<polygon fill="black" stroke="black" points="510.46,-147.73 515,-145 509.75,-144.3 510.46,-147.73"/>
<text text-anchor="middle" x="452" y="-226.8" font-family="Serif" font-size="14.00">SoilMoisture</text>
</g>
<!-- n4 -->
<!-- GrazingPressure_mechanism -->
<g id="n4" class="node">
<title>n4</title>
<polygon fill="none" stroke="black" points="219,-150 219,-175 389,-175 389,-150 219,-150"/>
<text text-anchor="start" x="224" y="-158.8" font-family="Serif" font-size="14.00">GrazingPressure_mechanism</text>
</g>
<!-- n4&#45;&gt;n0out4 -->
<!-- GrazingPressure -->
<g id="e10" class="edge">
<title>n4:e&#45;&gt;n0out4:w</title>
<path fill="none" stroke="black" d="M389,-162C398.15,-162 398.24,-169.35 407,-172 482.12,-194.68 504.53,-186 583,-186 583,-186 583,-186 1096.5,-186 1168.81,-186 1188.06,-191.72 1257.88,-191.99"/>
<polygon fill="black" stroke="black" points="1258,-193.74 1263,-192 1258,-190.24 1258,-193.74"/>
<text text-anchor="middle" x="827.5" y="-189.8" font-family="Serif" font-size="14.00">GrazingPressure</text>
</g>
<!-- n4&#45;&gt;n5 -->
<!-- GrazingPressure -->
<g id="e4" class="edge">
<title>n4:e&#45;&gt;n5:w</title>
<path fill="none" stroke="black" d="M389,-162C395.64,-162 486.9,-128.62 510.06,-122.1"/>
<polygon fill="black" stroke="black" points="510.5,-123.79 515,-121 509.74,-120.38 510.5,-123.79"/>
<text text-anchor="middle" x="452" y="-160.8" font-family="Serif" font-size="14.00">GrazingPressure</text>
</g>
<!-- n5&#45;&gt;n0out5 -->
<!-- Vegetation -->
<g id="e11" class="edge">
<title>n5:e&#45;&gt;n0out5:w</title>
<path fill="none" stroke="black" d="M653,-133C922.39,-133 991.02,-132.01 1257.86,-132"/>
<polygon fill="black" stroke="black" points="1258,-133.75 1263,-132 1258,-130.25 1258,-133.75"/>
<text text-anchor="middle" x="966.5" y="-136.8" font-family="Serif" font-size="14.00">Vegetation</text>
</g>
<!-- n6 -->
<!-- HabitatQuality_mechanism -->
<g id="n6" class="node">
<title>n6</title>
<polygon fill="none" stroke="black" points="747.5,-60 747.5,-85 908.5,-85 908.5,-60 747.5,-60"/>
<text text-anchor="start" x="752.5" y="-68.8" font-family="Serif" font-size="14.00">HabitatQuality_mechanism</text>
</g>
<!-- n5&#45;&gt;n6 -->
<!-- Vegetation -->
<g id="e5" class="edge">
<title>n5:e&#45;&gt;n6:w</title>
<path fill="none" stroke="black" d="M653,-133C668.55,-133 659.2,-113.12 671,-103 697.29,-80.46 709.28,-72.78 741.63,-72.06"/>
<polygon fill="black" stroke="black" points="742.02,-73.8 747,-72 741.98,-70.3 742.02,-73.8"/>
<text text-anchor="middle" x="700" y="-106.8" font-family="Serif" font-size="14.00">Vegetation</text>
</g>
<!-- n6&#45;&gt;n0out6 -->
<!-- HabitatQuality -->
<g id="e12" class="edge">
<title>n6:e&#45;&gt;n0out6:w</title>
<path fill="none" stroke="black" d="M908,-72C1064.08,-72 1104.36,-72 1257.96,-72"/>
<polygon fill="black" stroke="black" points="1258,-73.75 1263,-72 1258,-70.25 1258,-73.75"/>
<text text-anchor="middle" x="1095.5" y="-75.8" font-family="Serif" font-size="14.00">HabitatQuality</text>
</g>
<!-- n7 -->
<!-- Occupancy_mechanism -->
<g id="n7" class="node">
<title>n7</title>
<polygon fill="none" stroke="black" points="1025.5,-8 1025.5,-33 1166.5,-33 1166.5,-8 1025.5,-8"/>
<text text-anchor="start" x="1030.5" y="-16.8" font-family="Serif" font-size="14.00">Occupancy_mechanism</text>
</g>
<!-- n6&#45;&gt;n7 -->
<!-- HabitatQuality -->
<g id="e6" class="edge">
<title>n6:e&#45;&gt;n7:w</title>
<path fill="none" stroke="black" d="M908,-72C923.17,-72 913.67,-51.84 926,-43 961.28,-17.72 978.46,-19.79 1019.83,-19.99"/>
<polygon fill="black" stroke="black" points="1020,-21.74 1025,-20 1020,-18.24 1020,-21.74"/>
<text text-anchor="middle" x="966.5" y="-46.8" font-family="Serif" font-size="14.00">HabitatQuality</text>
</g>
<!-- n7&#45;&gt;n0out7 -->
<!-- Occupancy -->
<g id="e13" class="edge">
<title>n7:e&#45;&gt;n0out7:w</title>
<path fill="none" stroke="black" d="M1166,-20C1207.4,-20 1218.78,-12.67 1257.6,-12.04"/>
<polygon fill="black" stroke="black" points="1258.01,-13.79 1263,-12 1257.99,-10.29 1258.01,-13.79"/>
<text text-anchor="middle" x="1214.5" y="-23.8" font-family="Serif" font-size="14.00">Occupancy</text>
</g>
</g>
</svg>
