<?xml version="1.0" encoding="UTF-8" standalone="no"?>
<!DOCTYPE svg PUBLIC "-//W3C//DTD SVG 1.1//EN"
 "http://www.w3.org/Graphics/SVG/1.1/DTD/svg11.dtd">
<!-- Generated by graphviz version 2.50.0 (20211204.2007)
 -->
<!-- Title: G Pages: 1 -->
<svg width="1272pt" height="116pt"
 viewBox="0.00 0.00 1272.00 116.00" xmlns="http://www.w3.org/2000/svg" xmlns:xlink="http://www.w3.org/1999/xlink">
<g id="graph0" class="graph" transform="scale(1 1) rotate(0) translate(4 112)">
<title>G</title>
<polygon fill="white" stroke="transparent" points="-4,4 -4,-112 1268,-112 1268,4 -4,4"/>
<!-- n0out1 -->
<!-- n0out2 -->
<!-- n0out1&#45;&gt;n0out2 -->
<!-- n1 -->
<!-- Climate_mechanism -->
<g id="n1" class="node">
<title>n1</title>
<polygon fill="none" stroke="black" points="3.5,-42.5 3.5,-67.5 127.5,-67.5 127.5,-42.5 3.5,-42.5"/>
<text text-anchor="start" x="8.5" y="-51.3" font-family="Serif" font-size="14.00">Climate_mechanism</text>
</g>
<!-- n3 -->
<!-- SoilMoisture_mechanism -->
<g id="n3" class="node">
<title>n3</title>
<polygon fill="none" stroke="black" points="228,-8.5 228,-56.5 380,-56.5 380,-8.5 228,-8.5"/>
<text text-anchor="start" x="233" y="-28.8" font-family="Serif" font-size="14.00">SoilMoisture_mechanism</text>
</g>
<!-- n1&#45;&gt;n3 -->
<!-- Climate -->
<g id="e1" class="edge">
<title>n1:e&#45;&gt;n3:w</title>
<path fill="none" stroke="black" d="M128.5,-54.5C170.78,-54.5 182.13,-45.27 221.99,-44.54"/>
<polygon fill="black" stroke="black" points="222.02,-46.29 227,-44.5 221.98,-42.79 222.02,-46.29"/>
<text text-anchor="middle" x="175" y="-58.3" font-family="Serif" font-size="14.00">Climate</text>
</g>
<!-- n2 -->
<!-- Irrigation_mechanism -->
<g id="n2" class="node">
<title>n2</title>
<polygon fill="none" stroke="black" points="0.5,0.5 0.5,-24.5 131.5,-24.5 131.5,0.5 0.5,0.5"/>
<text text-anchor="start" x="5.5" y="-8.3" font-family="Serif" font-size="14.00">Irrigation_mechanism</text>
</g>
<!-- n2&#45;&gt;n3 -->
<!-- Irrigation -->
<g id="e2" class="edge">
<title>n2:e&#45;&gt;n3:w</title>
<path fill="none" stroke="black" d="M131,-11.5C162.23,-11.5 169.93,-14.38 201,-17.5 210.58,-18.46 214.15,-19.89 221.7,-20.35"/>
<polygon fill="black" stroke="black" points="221.95,-22.11 227,-20.5 222.05,-18.61 221.95,-22.11"/>
<text text-anchor="middle" x="175" y="-21.3" font-family="Serif" font-size="14.00">Irrigation</text>
</g>
<!-- n3&#45;&gt;n0out2 -->
<!-- SoilMoisture -->
<g id="e8" class="edge">
<title>n3:e&#45;&gt;n0out2:w</title>
<path fill="none" stroke="black" d="M381,-32.5C470.87,-32.5 493.13,-23.5 583,-23.5 583,-23.5 583,-23.5 1096.5,-23.5 1168.77,-23.5 1188.1,-23.5 1257.89,-23.5"/>
<polygon fill="black" stroke="black" points="1258,-25.25 1263,-23.5 1258,-21.75 1258,-25.25"/>
<text text-anchor="middle" x="827.5" y="-27.3" font-family="Serif" font-size="14.00">SoilMoisture</text>
</g>
<!-- n5 -->
<!-- Vegetation_mechanism -->
<g id="n5" class="node">
<title>n5</title>
<polygon fill="none" stroke="black" points="515,-59.5 515,-107.5 653,-107.5 653,-59.5 515,-59.5"/>
<text text-anchor="start" x="520" y="-79.8" font-family="Serif" font-size="14.00">Vegetation_mechanism</text>
</g>
<!-- n3&#45;&gt;n5 -->
<!-- SoilMoisture -->
<g id="e3" class="edge">
<title>n3:e&#45;&gt;n5:w</title>
<path fill="none" stroke="black" d="M381,-32.5C394.1,-32.5 486.75,-45.34 497,-53.5 511.27,-64.87 498.04,-89.71 509.93,-94.64"/>
<polygon fill="black" stroke="black" points="509.78,-96.39 515,-95.5 510.36,-92.94 509.78,-96.39"/>
<text text-anchor="middle" x="452" y="-57.3" font-family="Serif" font-size="14.00">SoilMoisture</text>
</g>
<!-- n4 -->
<!-- GrazingPressure_mechanism -->
<g id="n4" class="node">
<title>n4</title>
<polygon fill="none" stroke="black" points="219,-82.5 219,-107.5 389,-107.5 389,-82.5 219,-82.5"/>
<text text-anchor="start" x="224" y="-91.3" font-family="Serif" font-size="14.00">GrazingPressure_mechanism</text>
</g>
<!-- n4&#45;&gt;n5 -->
<!-- GrazingPressure -->
<g id="e4" class="edge">
<title>n4:e&#45;&gt;n5:w</title>
<path fill="none" stroke="black" d="M389,-94.5C415.91,-94.5 479.1,-73.95 509.98,-71.7"/>
<polygon fill="black" stroke="black" points="510.07,-73.45 515,-71.5 509.93,-69.95 510.07,-73.45"/>
<text text-anchor="middle" x="452" y="-96.3" font-family="Serif" font-size="14.00">GrazingPressure</text>
</g>
<!-- n6 -->
<!-- HabitatQuality_mechanism -->
<g id="n6" class="node">
<title>n6</title>
<polygon fill="none" stroke="black" points="747.5,-71.5 747.5,-96.5 908.5,-96.5 908.5,-71.5 747.5,-71.5"/>
<text text-anchor="start" x="752.5" y="-80.3" font-family="Serif" font-size="14.00">HabitatQuality_mechanism</text>
</g>
<!-- n5&#45;&gt;n6 -->
<!-- Vegetation -->
<g id="e5" class="edge">
<title>n5:e&#45;&gt;n6:w</title>
<path fill="none" stroke="black" d="M653,-83.5C692.98,-83.5 704.27,-83.5 741.78,-83.5"/>
<polygon fill="black" stroke="black" points="742,-85.25 747,-83.5 742,-81.75 742,-85.25"/>
<text text-anchor="middle" x="700" y="-87.3" font-family="Serif" font-size="14.00">Vegetation</text>
</g>
<!-- n7 -->
<!-- Occupancy_mechanism -->
<g id="n7" class="node">
<title>n7</title>
<polygon fill="none" stroke="black" points="1025.5,-71.5 1025.5,-96.5 1166.5,-96.5 1166.5,-71.5 1025.5,-71.5"/>
<text text-anchor="start" x="1030.5" y="-80.3" font-family="Serif" font-size="14.00">Occupancy_mechanism</text>
</g>
<!-- n6&#45;&gt;n7 -->
<!-- HabitatQuality -->
<g id="e6" class="edge">
<title>n6:e&#45;&gt;n7:w</title>
<path fill="none" stroke="black" d="M908,-83.5C958.27,-83.5 972.09,-83.5 1019.95,-83.5"/>
<polygon fill="black" stroke="black" points="1020,-85.25 1025,-83.5 1020,-81.75 1020,-85.25"/>
<text text-anchor="middle" x="966.5" y="-87.3" font-family="Serif" font-size="14.00">HabitatQuality</text>
</g>
<!-- n7&#45;&gt;n0out1 -->
<!-- Occupancy -->
<g id="e7" class="edge">
<title>n7:e&#45;&gt;n0out1:w</title>
<path fill="none" stroke="black" d="M1166,-83.5C1207.26,-83.5 1218.9,-83.5 1257.62,-83.5"/>
<polygon fill="black" stroke="black" points="1258,-85.25 1263,-83.5 1258,-81.75 1258,-85.25"/>
<text text-anchor="middle" x="1214.5" y="-87.3" font-family="Serif" font-size="14.00">Occupancy</text>
</g>
</g>
</svg>
