<?xml version="1.0" encoding="UTF-8" standalone="no"?>
<!DOCTYPE svg PUBLIC "-//W3C//DTD SVG 1.1//EN"
 "http://www.w3.org/Graphics/SVG/1.1/DTD/svg11.dtd">
<!-- Generated by graphviz version 2.50.0 (20211204.2007)
 -->
<!-- Title: G Pages: 1 -->
<svg width="380pt" height="331pt"
 viewBox="0.00 0.00 380.48 330.96" xmlns="http://www.w3.org/2000/svg" xmlns:xlink="http://www.w3.org/1999/xlink">
<g id="graph0" class="graph" transform="scale(1 1) rotate(0) translate(4 326.96)">
<title>G</title>
<polygon fill="white" stroke="transparent" points="-4,4 -4,-326.96 376.48,-326.96 376.48,4 -4,4"/>
<!-- v1 -->
<g id="node1" class="node">
<title>v1</title>
<ellipse fill="white" stroke="black" stroke-dasharray="5,2" cx="94.75" cy="-296.09" rx="94.51" ry="26.74"/>
<text text-anchor="middle" x="94.75" y="-299.89" font-family="Helvetica,sans-Serif" font-size="14.00">SoilMoisture</text>
<text text-anchor="middle" x="94.75" y="-284.89" font-family="Helvetica,sans-Serif" font-size="14.00">{low, medium, high}</text>
</g>
<!-- v3 -->
<g id="node3" class="node">
<title>v3</title>
<ellipse fill="white" stroke="black" cx="191.75" cy="-206.35" rx="123.07" ry="26.74"/>
<text text-anchor="middle" x="191.75" y="-210.15" font-family="Helvetica,sans-Serif" font-size="14.00">Vegetation</text>
<text text-anchor="middle" x="191.75" y="-195.15" font-family="Helvetica,sans-Serif" font-size="14.00">{sparse, moderate, dense}</text>
</g>
<!-- v1&#45;&gt;v3 -->
<g id="edge1" class="edge">
<title>v1&#45;&gt;v3</title>
<path fill="none" stroke="black" d="M122.29,-270.18C133.56,-259.99 146.7,-248.11 158.49,-237.43"/>
<polygon fill="black" stroke="black" points="160.26,-239.14 163.81,-232.63 156.97,-235.5 160.26,-239.14"/>
</g>
<!-- v2 -->
<g id="node2" class="node">
<title>v2</title>
<ellipse fill="white" stroke="black" cx="289.75" cy="-296.09" rx="82.96" ry="26.74"/>
<text text-anchor="middle" x="289.75" y="-299.89" font-family="Helvetica,sans-Serif" font-size="14.00">GrazingPressure</text>
<text text-anchor="middle" x="289.75" y="-284.89" font-family="Helvetica,sans-Serif" font-size="14.00">{low, high}</text>
</g>
<!-- v2&#45;&gt;v3 -->
<g id="edge2" class="edge">
<title>v2&#45;&gt;v3</title>
<path fill="none" stroke="black" d="M262.45,-270.65C250.96,-260.36 237.47,-248.28 225.38,-237.45"/>
<polygon fill="black" stroke="black" points="226.78,-235.42 219.93,-232.58 223.51,-239.07 226.78,-235.42"/>
</g>
<!-- v4 -->
<g id="node4" class="node">
<title>v4</title>
<ellipse fill="white" stroke="black" cx="191.75" cy="-116.61" rx="70.92" ry="26.74"/>
<text text-anchor="middle" x="191.75" y="-120.41" font-family="Helvetica,sans-Serif" font-size="14.00">HabitatQuality</text>
<text text-anchor="middle" x="191.75" y="-105.41" font-family="Helvetica,sans-Serif" font-size="14.00">{poor, good}</text>
</g>
<!-- v3&#45;&gt;v4 -->
<g id="edge3" class="edge">
<title>v3&#45;&gt;v4</title>
<path fill="none" stroke="black" d="M191.75,-179.03C191.75,-170.1 191.75,-160 191.75,-150.62"/>
<polygon fill="black" stroke="black" points="194.2,-150.61 191.75,-143.61 189.3,-150.61 194.2,-150.61"/>
</g>
<!-- v5 -->
<g id="node5" class="node">
<title>v5</title>
<ellipse fill="white" stroke="black" stroke-width="2" cx="191.75" cy="-26.87" rx="82.96" ry="26.74"/>
<text text-anchor="middle" x="191.75" y="-30.67" font-family="Helvetica,sans-Serif" font-size="14.00">Occupancy</text>
<text text-anchor="middle" x="191.75" y="-15.67" font-family="Helvetica,sans-Serif" font-size="14.00">{absent, present}</text>
</g>
<!-- v4&#45;&gt;v5 -->
<g id="edge4" class="edge">
<title>v4&#45;&gt;v5</title>
<path fill="none" stroke="black" d="M191.75,-89.29C191.75,-80.36 191.75,-70.26 191.75,-60.88"/>
<polygon fill="black" stroke="black" points="194.2,-60.87 191.75,-53.87 189.3,-60.87 194.2,-60.87"/>
</g>
</g>
</svg>
